<?xml version="1.0" encoding="UTF-8" standalone="no"?>
<!DOCTYPE svg PUBLIC "-//W3C//DTD SVG 1.1//EN" "http://www.w3.org/Graphics/SVG/1.1/DTD/svg11.dtd">
<svg xmlns="http://www.w3.org/2000/svg" version="1.1" viewBox="0.00 0.00 108.00 77.00">
<g stroke-width="2.00" fill="none" stroke-linecap="butt">
<path stroke="#51473a" vector-effect="non-scaling-stroke" d="
  M 4.28 0.00
  Q 2.88 0.25 2.88 1.00
  Q 2.93 25.33 3.84 62.25
  Q 4.02 69.72 4.49 77.00"
/>
<path stroke="#7e715d" vector-effect="non-scaling-stroke" d="
  M 17.90 0.00
  L 15.64 0.48
  A 0.70 0.70 0.0 0 0 15.09 1.21
  Q 15.22 3.28 15.07 5.42
  Q 14.88 7.93 15.04 10.74
  Q 15.91 26.20 16.08 37.49
  Q 16.16 42.40 15.70 47.76
  C 15.53 49.78 15.93 51.74 15.80 53.75
  Q 15.09 65.38 15.18 77.00"
/>
<path stroke="#7e715d" vector-effect="non-scaling-stroke" d="
  M 21.97 0.00
  L 22.57 0.34
  Q 23.00 0.58 22.95 1.07
  Q 22.06 10.24 21.90 19.71
  C 21.74 29.53 21.41 39.20 21.74 48.75
  Q 22.09 58.85 21.65 68.98
  Q 21.58 70.55 22.13 72.94
  Q 22.62 75.04 22.42 77.00"
/>
<path stroke="#82745d" vector-effect="non-scaling-stroke" d="
  M 27.14 0.00
  L 26.13 0.38
  Q 25.63 0.57 25.57 1.11
  Q 24.30 13.08 25.27 24.95
  C 25.58 28.75 24.80 32.93 25.38 37.04
  A 0.75 0.74 70.0 0 0 26.51 37.57
  Q 28.63 36.23 29.89 34.39
  Q 30.54 33.45 31.63 33.11
  Q 32.22 32.93 32.65 33.23
  A 0.81 0.81 0.0 0 1 32.75 34.47
  Q 31.46 35.76 30.36 37.16
  Q 28.84 39.09 26.56 38.54
  A 1.01 1.00 -82.0 0 0 25.32 39.48
  Q 24.94 48.36 25.09 57.62
  Q 25.12 59.31 25.59 61.85
  Q 25.98 63.96 26.10 66.10
  Q 26.18 67.67 25.37 70.79
  Q 24.37 74.65 26.04 77.00"
/>
<path stroke="#8e7d64" vector-effect="non-scaling-stroke" d="
  M 79.76 0.00
  Q 82.46 0.90 81.72 5.53
  Q 81.01 10.03 80.98 11.03
  Q 80.80 16.10 80.84 21.79
  Q 80.84 22.65 81.17 23.28
  Q 81.40 23.72 81.36 24.21
  C 80.97 28.44 81.46 32.57 81.18 36.80
  Q 80.64 44.85 80.91 54.42
  Q 80.95 55.75 81.39 56.98
  Q 81.94 58.49 81.57 59.99
  Q 81.03 62.21 80.88 64.82
  Q 80.81 65.89 81.36 69.64
  Q 81.90 73.40 81.33 77.00"
/>
<path stroke="#8e7d64" vector-effect="non-scaling-stroke" d="
  M 28.5300 23.8294
  A 2.24 1.70 116.8 0 0 31.0574 22.5965
  A 2.24 1.70 116.8 0 0 30.5500 19.8306
  A 2.24 1.70 116.8 0 0 28.0226 21.0635
  A 2.24 1.70 116.8 0 0 28.5300 23.8294"
/>
<path stroke="#9c8b72" vector-effect="non-scaling-stroke" d="
  M 80.27 62.76
  Q 79.34 65.01 80.20 67.34
  Q 80.58 68.36 80.58 67.27
  Q 80.60 64.99 80.72 62.87
  Q 80.80 61.50 80.27 62.76"
/>
<path stroke="#655644" vector-effect="non-scaling-stroke" d="
  M 83.39 0.00
  Q 83.44 10.72 82.82 21.50
  Q 82.77 22.37 83.36 23.37
  Q 83.61 23.79 83.61 24.28
  Q 83.63 27.39 83.61 30.50
  Q 83.61 30.78 83.74 31.02
  C 83.95 31.44 84.11 31.68 84.13 32.18
  Q 84.28 36.12 83.70 39.18
  Q 82.92 43.23 82.92 46.52
  Q 82.92 48.93 83.03 51.35
  Q 83.15 53.77 83.37 56.16
  Q 83.90 61.82 83.53 67.50
  Q 83.23 72.23 83.42 77.00"
/>
<path stroke="#736452" vector-effect="non-scaling-stroke" d="
  M 88.89 0.00
  L 88.62 76.01
  Q 88.62 76.53 89.11 76.68
  L 90.16 77.00"
/>
<path stroke="#6b5e4f" vector-effect="non-scaling-stroke" d="
  M 95.10 0.00
  C 96.49 0.04 97.97 0.59 98.05 2.15
  C 98.71 14.28 97.99 26.01 98.10 38.26
  C 98.13 41.19 98.57 44.18 98.64 47.17
  C 98.76 52.08 98.96 56.76 98.68 62.00
  Q 98.40 67.14 98.86 74.50
  Q 99.01 76.86 97.13 77.00"
/>
</g>
<path fill="#41362c" d="
  M 0.00 0.00
  L 4.28 0.00
  Q 2.88 0.25 2.88 1.00
  Q 2.93 25.33 3.84 62.25
  Q 4.02 69.72 4.49 77.00
  L 0.00 77.00
  L 0.00 0.00
  Z"
/>
<path fill="#615747" d="
  M 4.28 0.00
  L 17.90 0.00
  L 15.64 0.48
  A 0.70 0.70 0.0 0 0 15.09 1.21
  Q 15.22 3.28 15.07 5.42
  Q 14.88 7.93 15.04 10.74
  Q 15.91 26.20 16.08 37.49
  Q 16.16 42.40 15.70 47.76
  C 15.53 49.78 15.93 51.74 15.80 53.75
  Q 15.09 65.38 15.18 77.00
  L 4.49 77.00
  Q 4.02 69.72 3.84 62.25
  Q 2.93 25.33 2.88 1.00
  Q 2.88 0.25 4.28 0.00
  Z"
/>
<path fill="#9b8b73" d="
  M 17.90 0.00
  L 21.97 0.00
  L 22.57 0.34
  Q 23.00 0.58 22.95 1.07
  Q 22.06 10.24 21.90 19.71
  C 21.74 29.53 21.41 39.20 21.74 48.75
  Q 22.09 58.85 21.65 68.98
  Q 21.58 70.55 22.13 72.94
  Q 22.62 75.04 22.42 77.00
  L 15.18 77.00
  Q 15.09 65.38 15.80 53.75
  C 15.93 51.74 15.53 49.78 15.70 47.76
  Q 16.16 42.40 16.08 37.49
  Q 15.91 26.20 15.04 10.74
  Q 14.88 7.93 15.07 5.42
  Q 15.22 3.28 15.09 1.21
  A 0.70 0.70 0.0 0 1 15.64 0.48
  L 17.90 0.00
  Z"
/>
<path fill="#615747" d="
  M 21.97 0.00
  L 27.14 0.00
  L 26.13 0.38
  Q 25.63 0.57 25.57 1.11
  Q 24.30 13.08 25.27 24.95
  C 25.58 28.75 24.80 32.93 25.38 37.04
  A 0.75 0.74 70.0 0 0 26.51 37.57
  Q 28.63 36.23 29.89 34.39
  Q 30.54 33.45 31.63 33.11
  Q 32.22 32.93 32.65 33.23
  A 0.81 0.81 0.0 0 1 32.75 34.47
  Q 31.46 35.76 30.36 37.16
  Q 28.84 39.09 26.56 38.54
  A 1.01 1.00 -82.0 0 0 25.32 39.48
  Q 24.94 48.36 25.09 57.62
  Q 25.12 59.31 25.59 61.85
  Q 25.98 63.96 26.10 66.10
  Q 26.18 67.67 25.37 70.79
  Q 24.37 74.65 26.04 77.00
  L 22.42 77.00
  Q 22.62 75.04 22.13 72.94
  Q 21.58 70.55 21.65 68.98
  Q 22.09 58.85 21.74 48.75
  C 21.41 39.20 21.74 29.53 21.90 19.71
  Q 22.06 10.24 22.95 1.07
  Q 23.00 0.58 22.57 0.34
  L 21.97 0.00
  Z"
/>
<path fill="#a39173" d="
  M 27.14 0.00
  L 79.76 0.00
  Q 82.46 0.90 81.72 5.53
  Q 81.01 10.03 80.98 11.03
  Q 80.80 16.10 80.84 21.79
  Q 80.84 22.65 81.17 23.28
  Q 81.40 23.72 81.36 24.21
  C 80.97 28.44 81.46 32.57 81.18 36.80
  Q 80.64 44.85 80.91 54.42
  Q 80.95 55.75 81.39 56.98
  Q 81.94 58.49 81.57 59.99
  Q 81.03 62.21 80.88 64.82
  Q 80.81 65.89 81.36 69.64
  Q 81.90 73.40 81.33 77.00
  L 26.04 77.00
  Q 24.37 74.65 25.37 70.79
  Q 26.18 67.67 26.10 66.10
  Q 25.98 63.96 25.59 61.85
  Q 25.12 59.31 25.09 57.62
  Q 24.94 48.36 25.32 39.48
  A 1.01 1.00 -82.0 0 1 26.56 38.54
  Q 28.84 39.09 30.36 37.16
  Q 31.46 35.76 32.75 34.47
  A 0.81 0.81 0.0 0 0 32.65 33.23
  Q 32.22 32.93 31.63 33.11
  Q 30.54 33.45 29.89 34.39
  Q 28.63 36.23 26.51 37.57
  A 0.75 0.74 70.0 0 1 25.38 37.04
  C 24.80 32.93 25.58 28.75 25.27 24.95
  Q 24.30 13.08 25.57 1.11
  Q 25.63 0.57 26.13 0.38
  L 27.14 0.00
  Z
  M 28.5300 23.8294
  A 2.24 1.70 116.8 0 0 31.0574 22.5965
  A 2.24 1.70 116.8 0 0 30.5500 19.8306
  A 2.24 1.70 116.8 0 0 28.0226 21.0635
  A 2.24 1.70 116.8 0 0 28.5300 23.8294
  Z
  M 80.27 62.76
  Q 79.34 65.01 80.20 67.34
  Q 80.58 68.36 80.58 67.27
  Q 80.60 64.99 80.72 62.87
  Q 80.80 61.50 80.27 62.76
  Z"
/>
<path fill="#796854" d="
  M 79.76 0.00
  L 83.39 0.00
  Q 83.44 10.72 82.82 21.50
  Q 82.77 22.37 83.36 23.37
  Q 83.61 23.79 83.61 24.28
  Q 83.63 27.39 83.61 30.50
  Q 83.61 30.78 83.74 31.02
  C 83.95 31.44 84.11 31.68 84.13 32.18
  Q 84.28 36.12 83.70 39.18
  Q 82.92 43.23 82.92 46.52
  Q 82.92 48.93 83.03 51.35
  Q 83.15 53.77 83.37 56.16
  Q 83.90 61.82 83.53 67.50
  Q 83.23 72.23 83.42 77.00
  L 81.33 77.00
  Q 81.90 73.40 81.36 69.64
  Q 80.81 65.89 80.88 64.82
  Q 81.03 62.21 81.57 59.99
  Q 81.94 58.49 81.39 56.98
  Q 80.95 55.75 80.91 54.42
  Q 80.64 44.85 81.18 36.80
  C 81.46 32.57 80.97 28.44 81.36 24.21
  Q 81.40 23.72 81.17 23.28
  Q 80.84 22.65 80.84 21.79
  Q 80.80 16.10 80.98 11.03
  Q 81.01 10.03 81.72 5.53
  Q 82.46 0.90 79.76 0.00
  Z"
/>
<path fill="#514333" d="
  M 83.39 0.00
  L 88.89 0.00
  L 88.62 76.01
  Q 88.62 76.53 89.11 76.68
  L 90.16 77.00
  L 83.42 77.00
  Q 83.23 72.23 83.53 67.50
  Q 83.90 61.82 83.37 56.16
  Q 83.15 53.77 83.03 51.35
  Q 82.92 48.93 82.92 46.52
  Q 82.92 43.23 83.70 39.18
  Q 84.28 36.12 84.13 32.18
  C 84.11 31.68 83.95 31.44 83.74 31.02
  Q 83.61 30.78 83.61 30.50
  Q 83.63 27.39 83.61 24.28
  Q 83.61 23.79 83.36 23.37
  Q 82.77 22.37 82.82 21.50
  Q 83.44 10.72 83.39 0.00
  Z"
/>
<path fill="#948571" d="
  M 88.89 0.00
  L 95.10 0.00
  C 96.49 0.04 97.97 0.59 98.05 2.15
  C 98.71 14.28 97.99 26.01 98.10 38.26
  C 98.13 41.19 98.57 44.18 98.64 47.17
  C 98.76 52.08 98.96 56.76 98.68 62.00
  Q 98.40 67.14 98.86 74.50
  Q 99.01 76.86 97.13 77.00
  L 90.16 77.00
  L 89.11 76.68
  Q 88.62 76.53 88.62 76.01
  L 88.89 0.00
  Z"
/>
<path fill="#41362c" d="
  M 95.10 0.00
  L 108.00 0.00
  L 108.00 77.00
  L 97.13 77.00
  Q 99.01 76.86 98.86 74.50
  Q 98.40 67.14 98.68 62.00
  C 98.96 56.76 98.76 52.08 98.64 47.17
  C 98.57 44.18 98.13 41.19 98.10 38.26
  C 97.99 26.01 98.71 14.28 98.05 2.15
  C 97.97 0.59 96.49 0.04 95.10 0.00
  Z"
/>
<ellipse fill="#796854" cx="0.00" cy="0.00" transform="translate(29.54,21.83) rotate(116.8)" rx="2.24" ry="1.70"/>
<path fill="#948571" d="
  M 80.72 62.87
  Q 80.60 64.99 80.58 67.27
  Q 80.58 68.36 80.20 67.34
  Q 79.34 65.01 80.27 62.76
  Q 80.80 61.50 80.72 62.87
  Z"
/>
</svg>
